HIERARCHY
ROOT SpineBase
{
  OFFSET 0.000000 0.000000 0.000000
  CHANNELS 6 Xposition Yposition Zposition Zrotation Xrotation Yrotation
  JOINT SpineMid
  {
    OFFSET 0.000000 29.446036 0.000000
    CHANNELS 3 Zrotation Xrotation Yrotation
    JOINT SpineShoulder
    {
      OFFSET 0.707640 21.911616 -0.560061
      CHANNELS 3 Zrotation Xrotation Yrotation
      JOINT Neck
      {
        OFFSET 0.407524 7.295272 -0.487938
        CHANNELS 3 Zrotation Xrotation Yrotation
        JOINT Head
        {
          OFFSET 4.202974 14.289346 -0.957212
          CHANNELS 3 Zrotation Xrotation Yrotation
          End Site
          {
            OFFSET 0 0 0
          }
        }
      }
      JOINT ShoulderLeft
      {
        OFFSET -11.962902 -0.523376 -11.365405
        CHANNELS 3 Zrotation Xrotation Yrotation
        JOINT ElbowLeft
        {
          OFFSET -5.183572 -22.048089 -4.230318
          CHANNELS 3 Zrotation Xrotation Yrotation
          JOINT WristLeft
          {
            OFFSET 5.646157 -22.064489 -3.660961
            CHANNELS 3 Zrotation Xrotation Yrotation
            JOINT HandLeft
            {
              OFFSET 1.992646 -4.504162 0.600031
              CHANNELS 3 Zrotation Xrotation Yrotation
              JOINT HandTipLeft
              {
                OFFSET 1.518420 -5.278498 -1.428285
                CHANNELS 3 Zrotation Xrotation Yrotation
                End Site
                {
                  OFFSET 0 0 0
                }
              }
              JOINT ThumbLeft
              {
                OFFSET 3.850150 0.226174 -1.430746
                CHANNELS 3 Zrotation Xrotation Yrotation
                End Site
                {
                  OFFSET 0 0 0
                }
              }
            }
          }
        }
      }
      JOINT ShoulderRight
      {
        OFFSET 14.308826 -1.932116 8.595780
        CHANNELS 3 Zrotation Xrotation Yrotation
        JOINT ElbowRight
        {
          OFFSET 4.457193 -27.483979 5.774558
          CHANNELS 3 Zrotation Xrotation Yrotation
          JOINT WristRight
          {
            OFFSET 2.130849 -20.140159 -7.137518
            CHANNELS 3 Zrotation Xrotation Yrotation
            JOINT HandRight
            {
              OFFSET -0.841719 -3.687669 -1.922195
              CHANNELS 3 Zrotation Xrotation Yrotation
              JOINT HandTipRight
              {
                OFFSET 0.569458 -6.216746 -1.194561
                CHANNELS 3 Zrotation Xrotation Yrotation
                End Site
                {
                  OFFSET 0 0 0
                }
              }
              JOINT ThumbRight
              {
                OFFSET -2.163793 -0.721938 -2.092043
                CHANNELS 3 Zrotation Xrotation Yrotation
                End Site
                {
                  OFFSET 0 0 0
                }
              }
            }
          }
        }
      }
    }
  }
  JOINT HipLeft
  {
    OFFSET -5.106107 2.035847 -6.923354
    CHANNELS 3 Zrotation Xrotation Yrotation
    JOINT KneeLeft
    {
      OFFSET -6.185703 -26.811639 -9.243727
      CHANNELS 3 Zrotation Xrotation Yrotation
      JOINT AnkleLeft
      {
        OFFSET -7.107129 -36.698898 1.898971
        CHANNELS 3 Zrotation Xrotation Yrotation
        JOINT FootLeft
        {
          OFFSET 7.149788 -3.241235 -10.554350
          CHANNELS 3 Zrotation Xrotation Yrotation
          End Site
          {
            OFFSET 0 0 0
          }
        }
      }
    }
  }
  JOINT HipRight
  {
    OFFSET 7.598130 0.586086 0.998926
    CHANNELS 3 Zrotation Xrotation Yrotation
    JOINT KneeRight
    {
      OFFSET -2.200684 -29.060859 4.578541
      CHANNELS 3 Zrotation Xrotation Yrotation
      JOINT AnkleRight
      {
        OFFSET -7.087943 -32.657279 6.942456
        CHANNELS 3 Zrotation Xrotation Yrotation
        JOINT FootRight
        {
          OFFSET 6.979288 -3.300574 -10.666681
          CHANNELS 3 Zrotation Xrotation Yrotation
          End Site
          {
            OFFSET 0 0 0
          }
        }
      }
    }
  }
}
MOTION
Frames: 8
Frame Time: 0.033333
-147.117129 66.996001 352.122921 -0.000000 0.000000 -31.947399 -0.000000 0.000000 31.947399 -0.000000 0.000000 0.000000 -0.000000 0.000000 0.000000 0.000000 0.000000 0.000000 -0.000000 0.000000 0.000000 -0.000000 0.000000 0.000000 -0.000000 0.000000 0.000000 -0.000000 0.000000 0.000000 0.000000 0.000000 0.000000 0.000000 0.000000 0.000000 -0.000000 0.000000 0.000000 -0.000000 0.000000 0.000000 -0.000000 0.000000 0.000000 -0.000000 0.000000 0.000000 0.000000 0.000000 0.000000 0.000000 0.000000 0.000000 -0.000000 0.000000 31.947399 -0.000000 0.000000 0.000000 -0.000000 0.000000 0.000000 0.000000 0.000000 0.000000 -0.000000 0.000000 31.947399 -0.000000 0.000000 0.000000 -0.000000 0.000000 0.000000 0.000000 0.000000 0.000000
-147.329681 67.082093 351.451822 -0.237809 -0.274779 -32.512664 0.052851 0.359532 32.511928 -0.000000 0.000000 0.000000 -0.605141 0.657863 -0.230295 0.000000 0.000000 0.000000 -0.720693 0.803941 -0.045547 0.721403 -0.803305 0.055661 0.378549 1.295584 0.619363 -3.641815 -9.873530 -2.632943 0.000000 0.000000 0.000000 0.000000 0.000000 0.000000 -0.000000 0.000000 0.000000 -0.000000 0.000000 0.000000 -1.541664 -2.384212 1.326090 -1.568224 -0.378612 -0.994643 0.000000 0.000000 0.000000 0.000000 0.000000 0.000000 1.386916 -0.374530 32.568809 0.238486 0.849925 0.077718 -0.966879 0.488219 -0.140263 0.000000 0.000000 0.000000 0.052851 0.359532 32.511928 -0.000000 0.000000 0.000000 -0.000000 0.000000 0.000000 0.000000 0.000000 0.000000
-147.559942 67.175921 350.748465 -0.418385 -0.510538 -32.989412 0.072962 0.656023 32.987130 -0.000000 0.000000 0.000000 -1.071897 1.240723 -0.424290 0.000000 0.000000 0.000000 -1.829325 1.371788 0.050090 0.632368 -0.774700 0.323360 1.662229 1.416740 0.608097 -6.089731 -16.346951 -4.774826 0.000000 0.000000 0.000000 0.000000 0.000000 0.000000 -0.130951 -0.847693 -0.165732 1.515256 0.133166 -0.415403 -4.776896 -2.875646 3.129007 -2.357318 -0.246741 -1.800443 0.000000 0.000000 0.000000 0.000000 0.000000 0.000000 2.672136 -0.707398 33.083848 0.339381 1.560512 0.158417 -1.673318 0.709548 -1.249269 0.000000 0.000000 0.000000 0.072962 0.656023 32.987130 0.146541 -1.311716 0.316854 -0.022051 1.003072 -1.360070 0.000000 0.000000 0.000000
-147.807911 67.277486 350.012849 -0.541487 -0.707057 -33.375634 0.775248 0.139081 33.402933 0.309082 0.072764 0.045036 -1.889267 2.693970 -0.643401 0.000000 0.000000 0.000000 -3.806358 2.624767 0.261311 1.626805 -0.862844 0.262905 2.031769 1.561967 0.627080 -7.398950 -20.387698 -6.293419 0.000000 0.000000 0.000000 0.000000 0.000000 0.000000 -0.946208 -1.186701 -0.522136 2.646604 0.870889 -0.543579 -7.882735 -2.662150 4.751227 -2.108932 0.913115 -2.498226 0.000000 0.000000 0.000000 0.000000 0.000000 0.000000 3.849252 -1.006272 33.492036 0.303234 2.127820 0.253076 -2.267019 1.140106 -1.782048 0.000000 0.000000 0.000000 0.276663 1.738571 33.423853 -0.453191 -2.457798 0.389895 -0.012355 1.434891 -1.925595 0.000000 0.000000 0.000000
-148.073589 67.386786 349.244973 -0.606935 -0.864166 -33.669306 0.941973 0.184009 33.701533 0.371215 0.089964 0.055848 -2.237741 3.322628 -0.783676 0.000000 0.000000 0.000000 -5.800751 2.848098 0.659369 3.025060 -0.728228 0.062656 2.172438 1.493759 0.531848 -7.620585 -22.629828 -7.158338 0.000000 0.000000 0.000000 0.000000 0.000000 0.000000 -1.619981 -2.868096 -0.964251 4.027519 2.091095 -0.659213 -11.627117 -1.637507 6.607772 -0.522361 3.367837 -3.117029 0.000000 0.000000 0.000000 0.000000 0.000000 0.000000 4.913163 -1.278408 33.792932 0.130368 2.548637 0.370635 -2.696700 1.621228 -2.255654 0.000000 0.000000 0.000000 0.537854 2.328803 33.769072 -0.911548 -3.127741 0.437029 0.011451 1.822603 -2.414782 0.000000 0.000000 0.000000
-148.356976 67.503822 348.444839 -0.614604 -0.981736 -33.868325 1.063406 0.224619 33.905031 0.413111 0.103288 0.065046 -2.446261 3.815633 -0.894927 0.000000 0.000000 0.000000 -8.088941 2.724054 1.180756 4.771748 -0.373998 -0.272615 2.091388 1.249231 0.334161 -6.779758 -23.418028 -7.385410 0.000000 0.000000 0.000000 0.000000 0.000000 0.000000 -2.501805 -5.208203 -1.570013 5.654799 3.811060 -0.807721 -16.186370 0.106184 8.863228 2.759313 7.138938 -3.702655 0.000000 0.000000 0.000000 0.000000 0.000000 0.000000 5.859916 -1.530490 33.985957 -0.179083 2.820227 0.517899 -2.960801 2.153124 -2.672103 0.000000 0.000000 0.000000 0.891025 2.931085 34.035376 -1.531518 -3.727385 0.440464 0.049745 2.167315 -2.827549 0.000000 0.000000 0.000000
-148.723116 67.622177 347.476449 -0.470286 -1.125093 -34.139613 1.136591 0.289698 34.185019 0.424345 0.108971 0.077643 -2.450462 4.391406 -1.032451 0.000000 0.000000 0.000000 -10.842677 2.123958 1.845353 6.984931 0.746582 -0.703861 1.879124 0.569878 0.013669 -4.973617 -21.265289 -6.439487 0.000000 0.000000 0.000000 0.000000 0.000000 0.000000 -4.023472 -8.918230 -2.596566 8.327896 6.827319 -1.246314 -23.157793 1.732156 12.449021 9.735769 13.476409 -4.862799 0.000000 0.000000 0.000000 0.000000 0.000000 0.000000 6.759775 -1.750771 34.213116 -1.136095 3.039865 0.744877 -2.681161 2.725825 -3.106993 0.000000 0.000000 0.000000 0.910988 3.986657 34.357343 -2.117765 -5.276292 0.588537 -0.061009 2.949508 -3.375596 0.000000 0.000000 0.000000
-149.014520 67.759453 346.538345 -0.213459 -1.220002 -34.063529 1.132717 0.318511 34.119981 0.405783 0.117974 0.088323 -2.507262 4.637505 -1.097955 0.000000 0.000000 0.000000 -14.008600 1.350478 2.574460 10.747768 2.406931 -1.291667 -0.693929 -3.216367 -1.719244 -1.337826 -18.213078 -4.622803 0.000000 0.000000 0.000000 0.000000 0.000000 0.000000 -5.698700 -12.882438 -3.779224 10.944239 9.885758 -1.891763 -31.453509 4.875294 16.819412 19.270111 18.932855 -5.903595 0.000000 0.000000 0.000000 0.000000 0.000000 0.000000 7.193848 -2.060151 34.151269 -1.516999 3.065311 0.903554 -2.683987 3.287198 -3.397369 0.000000 0.000000 0.000000 2.387134 4.718995 34.512362 -4.941381 -4.820150 -0.017233 0.878969 2.805685 -3.373861 0.000000 0.000000 0.000000
